{"title":"Harry Potter And The Prisoner Of Azkaban 2004 1080p BDRip Dual A","uid":6659698,"size":3713854372,"categoryP":"video","categoryS":"hd___movies","magnet":"?xt=urn:btih:90c8e2c5462fb97b82a31139c1ab7d7f3d0b7fb0&amp;dn=Harry+Potter+And+The+Prisoner+Of+Azkaban+2004+1080p+BDRip+Dual+A&amp;tr=udp%3A%2F%2Ftracker.openbittorrent.com%3A80&amp;tr=udp%3A%2F%2Fopen.demonii.com%3A1337&amp;tr=udp%3A%2F%2Ftracker.coppersurfer.tk%3A6969&amp;tr=udp%3A%2F%2Fexodus.desync.com%3A6969","seeders":0,"leechers":0,"uploader":"meguil","files":15,"time":1315474450,"description":"Cover:\n  &lt;a href=&quot;\nhttp://imageshack.us/photo/my-images/31/coversgf.jpg&quot; rel=&quot;nofollow&quot; target=&quot;_NEW&quot;&gt;\nhttp://imageshack.us/photo/my-images/31/coversgf.jpg&lt;/a&gt;\n\nRelease Title: Harry Potter And The Prisoner Of Azkaban 2004 BRRip 1080p x264 AAC - honchorella (Kingdom Release)\n\nStoryline: It's Harry's third year at Hogwarts; not only does he have a new &quot;Defense Against the Dark Arts&quot; teacher, but there is also trouble brewing. Convicted murderer Sirius Black has escaped the Wizards' Prison and is coming after Harry. \n\nCast\nDaniel Radcliffe\t... \tHarry Potter\nRichard Griffiths\t... \tUncle Vernon\nPam Ferris\t... \tAunt Marge\nFiona Shaw\t... \tAunt Petunia\nHarry Melling\t... \tDudley Dursley\nAdrian Rawlins\t... \tJames Potter\nGeraldine Somerville\t... \tLily Potter\nLee Ingleby\t... \tStan Shunpike\nLenny Henry\t... \tShrunken Head\n\nGenre: Adventure | Family | Fantasy | Mystery\nLanguage: English | Hindi\nRuntime: 2h 15min\nTotal Size: 3.42 gb\nSource: FraMeSToR 1080p ;)\nEncoder: meguil\n\nVideo Specs\nContainer: mkv\nFormat Profile: &lt;a class=&quot;__cf_email__&quot; href=&quot;/cdn-cgi/l/email-protection&quot; data-cfemail=&quot;4e062729260e027a607e&quot;&gt;[email&amp;#160;protected]&lt;/a&gt;&lt;script data-cfhash='f9e31' type=&quot;text/javascript&quot;&gt;\n/* &lt;![CDATA[ */!function(){try{var t=&quot;currentScript&quot;in document?document.currentScript:function(){for(var t=document.getElementsByTagName(&quot;script&quot;),e=t.length;e--;)if(t[e].getAttribute(&quot;data-cfhash&quot;))return t[e]}();if(t&amp;&amp;t.previousSibling){var e,r,n,i,c=t.previousSibling,a=c.getAttribute(&quot;data-cfemail&quot;);if(a){for(e=&quot;&quot;,r=parseInt(a.substr(0,2),16),n=2;a.length-n;n+=2)i=parseInt(a.substr(n,2),16)^r,e+=String.fromCharCode(i);e=document.createTextNode(e),c.parentNode.replaceChild(e,c)}t.parentNode.removeChild(t);}}catch(u){}}()/* ]]&gt; */&lt;/script&gt;\nMin Bitrate: 3000 kbps\nMax Bitrate: 25 Mbps\nEncoding: 2 Pass\nResolution: 1920 x 800\nDisplay Aspect Ratio: 2.40:1\nQuality Factor (QF): 0.081\nFrame Rate: 23.976 fps\nStream size: 2.97 GiB (87%)\n\nEnglish Audio Specs\nSubtitles: Yes\nAudio Codec: AAC/LC\nBitrate: 336 Kbps\nSample Rate: 48.0 KHz\nChannel Count: 6\nChannel Positions: Front: L C R, Side L R, LFE\nStream size: 322 MiB (9%)\n\nHindi Audio Specs\nSubtitles: No\nAudio Codec: MP3\nBitrate: 160 Kbps\nSample Rate: 48.0 KHz\nChannel Count: 2\nChannel Positions: Front L R\nStream size: 156 MiB (4%)\n\nIMDB  &lt;a href=&quot;\nhttp://www.imdb.com/title/tt0304141/&quot; rel=&quot;nofollow&quot; target=&quot;_NEW&quot;&gt;\nhttp://www.imdb.com/title/tt0304141/&lt;/a&gt;\n\nScreens:\n  &lt;a href=&quot;\nhttp://img62.imageshack.us/img62/4139/27204987.jpg&quot; rel=&quot;nofollow&quot; target=&quot;_NEW&quot;&gt;\nhttp://img62.imageshack.us/img62/4139/27204987.jpg&lt;/a&gt;\n &lt;a href=&quot;\nhttp://img847.imageshack.us/img847/2200/72189601.jpg&quot; rel=&quot;nofollow&quot; target=&quot;_NEW&quot;&gt;\nhttp://img847.imageshack.us/img847/2200/72189601.jpg&lt;/a&gt;\n &lt;a href=&quot;\nhttp://img51.imageshack.us/img51/4330/61096340.jpg&quot; rel=&quot;nofollow&quot; target=&quot;_NEW&quot;&gt;\nhttp://img51.imageshack.us/img51/4330/61096340.jpg&lt;/a&gt;\n &lt;a href=&quot;\nhttp://img813.imageshack.us/img813/2973/47886834.jpg&quot; rel=&quot;nofollow&quot; target=&quot;_NEW&quot;&gt;\nhttp://img813.imageshack.us/img813/2973/47886834.jpg&lt;/a&gt;\n &lt;a href=&quot;\nhttp://img94.imageshack.us/img94/3361/40143121.jpg&quot; rel=&quot;nofollow&quot; target=&quot;_NEW&quot;&gt;\nhttp://img94.imageshack.us/img94/3361/40143121.jpg&lt;/a&gt;\n &lt;a href=&quot;\nhttp://img13.imageshack.us/img13/4574/20734020.jpg&quot; rel=&quot;nofollow&quot; target=&quot;_NEW&quot;&gt;\nhttp://img13.imageshack.us/img13/4574/20734020.jpg&lt;/a&gt;\n &lt;a href=&quot;\nhttp://img153.imageshack.us/img153/2624/52463205.jpg&quot; rel=&quot;nofollow&quot; target=&quot;_NEW&quot;&gt;\nhttp://img153.imageshack.us/img153/2624/52463205.jpg&lt;/a&gt;\n &lt;a href=&quot;\nhttp://img683.imageshack.us/img683/6844/48520583.jpg&quot; rel=&quot;nofollow&quot; target=&quot;_NEW&quot;&gt;\nhttp://img683.imageshack.us/img683/6844/48520583.jpg&lt;/a&gt;\n","torrent":{"xt":"urn:btih:90c8e2c5462fb97b82a31139c1ab7d7f3d0b7fb0","amp;dn":"Harry+Potter+And+The+Prisoner+Of+Azkaban+2004+1080p+BDRip+Dual+A","amp;tr":["udp%3A%2F%2Ftracker.openbittorrent.com%3A80","udp%3A%2F%2Fopen.demonii.com%3A1337","udp%3A%2F%2Ftracker.coppersurfer.tk%3A6969","udp%3A%2F%2Fexodus.desync.com%3A6969"],"infoHash":"90c8e2c5462fb97b82a31139c1ab7d7f3d0b7fb0","infoHashBuffer":{"type":"Buffer","data":[144,200,226,197,70,47,185,123,130,163,17,57,193,171,125,127,61,11,127,176]},"announce":[],"urlList":[]}}